<svg width="19" height="21" viewBox="0 0 19 21" fill="none" xmlns="http://www.w3.org/2000/svg">
<path d="M14.125 10.5C14.125 12.9216 12.1662 14.8846 9.74998 14.8846C7.33374 14.8846 5.37498 12.9216 5.37498 10.5C5.37498 8.07848 7.33374 6.11542 9.74998 6.11542C12.1662 6.11542 14.125 8.07848 14.125 10.5Z" stroke="white"/>
<path d="M8.42326 1.34314C9.24624 0.885703 10.2537 0.885702 11.0767 1.34314L17.1733 4.79486C17.9887 5.26507 18.4925 6.12069 18.5 7.04834V13.9518C18.4925 14.8794 17.9887 15.7351 17.1733 16.2053L11.0767 19.657C10.2537 20.1144 9.24624 20.1144 8.42326 19.657L2.3267 16.2053C1.51124 15.7351 1.0075 14.8794 0.999985 13.9518L0.999985 7.04833C1.0075 6.12069 1.51125 5.26507 2.3267 4.79486L8.42326 1.34314Z" stroke="white"/>
</svg>
